<?xml version="1.0" encoding="UTF-8" standalone="no"?>
<!-- Created with Inkscape (http://www.inkscape.org/) -->

<svg
   width="10.186278mm"
   height="11.860114mm"
   viewBox="0 0 10.186278 11.860114"
   version="1.1"
   id="svg5"
   xml:space="preserve"
   inkscape:version="1.4.2 (f4327f4, 2025-05-13)"
   sodipodi:docname="symbol.svg"
   inkscape:export-filename="..\7_trefle_bis.png"
   inkscape:export-xdpi="300"
   inkscape:export-ydpi="300"
   xmlns:inkscape="http://www.inkscape.org/namespaces/inkscape"
   xmlns:sodipodi="http://sodipodi.sourceforge.net/DTD/sodipodi-0.dtd"
   xmlns="http://www.w3.org/2000/svg"
   xmlns:svg="http://www.w3.org/2000/svg"><sodipodi:namedview
     id="namedview7"
     pagecolor="#505050"
     bordercolor="#eeeeee"
     borderopacity="1"
     inkscape:showpageshadow="0"
     inkscape:pageopacity="0"
     inkscape:pagecheckerboard="0"
     inkscape:deskcolor="#505050"
     inkscape:document-units="mm"
     showgrid="false"
     inkscape:zoom="1.7069892"
     inkscape:cx="16.988977"
     inkscape:cy="54.774805"
     inkscape:window-width="2560"
     inkscape:window-height="1369"
     inkscape:window-x="-8"
     inkscape:window-y="-8"
     inkscape:window-maximized="1"
     inkscape:current-layer="layer1"
     showguides="false"><inkscape:page
       x="3.1710629e-16"
       y="-4.3801559e-13"
       width="10.186277"
       height="11.860113"
       id="page2"
       margin="0"
       bleed="0" /></sodipodi:namedview><defs
     id="defs2"><linearGradient
       id="linearGradient4698"
       inkscape:swatch="solid"><stop
         style="stop-color:#2393cd;stop-opacity:1;"
         offset="0"
         id="stop4696" /></linearGradient><linearGradient
       id="linearGradient22870"
       inkscape:swatch="solid"><stop
         style="stop-color:#f1abc9;stop-opacity:1;"
         offset="0"
         id="stop22868" /></linearGradient></defs><g
     inkscape:label="Fond"
     inkscape:groupmode="layer"
     id="layer1"
     transform="translate(-9.1999727,-55.815936)"><path
       style="fill:#000000;fill-opacity:1;stroke-width:1"
       d="m 12.001357,67.178986 v -0.49741 h 0.11371 c 0.16446,0 0.48704,-0.0881 0.68279,-0.18657 0.55662,-0.27986 0.91653,-0.81014 0.984,-1.44977 0.0322,-0.30497 0.0225,-0.31642 -0.15687,-0.18566 -0.16912,0.12329 -0.49436,0.29285 -0.70851,0.36938 -0.29894,0.10682 -0.55532,0.14773 -0.9257,0.14773 -0.50207,0 -0.84131,-0.081 -1.2823,-0.30628 -0.7673201,-0.39194 -1.3182701,-1.13832 -1.4737601,-1.99652 -0.047,-0.25947 -0.0463,-0.72532 0.002,-0.9749 0.11524,-0.60172 0.38793,-1.10829 0.8197001,-1.52271 0.42414,-0.4071 0.93882,-0.66366 1.51152,-0.75348 0.0931,-0.0146 0.17222,-0.0289 0.17576,-0.0317 0.004,-0.003 -0.0184,-0.0657 -0.0487,-0.13979 -0.24011,-0.58657 -0.26316,-1.31494 -0.0608,-1.92186 0.28062,-0.84169 0.96984,-1.52611 1.79906,-1.78654 0.31202,-0.098 0.52102,-0.12828 0.87575,-0.12693 0.34554,10e-4 0.5808,0.0377 0.86938,0.13433 0.9004,0.3016 1.5982,1.0604 1.83018,1.99018 0.0746,0.29913 0.0939,0.79902 0.0428,1.11047 -0.0285,0.17355 -0.14557,0.57 -0.2096,0.70964 -0.0123,0.0268 0.0241,0.0389 0.2115,0.0706 1.20935,0.20461 2.12492,1.14366 2.30546,2.36457 0.0814,0.55046 -0.0199,1.16401 -0.27548,1.66835 -0.10926,0.21562 -0.32547,0.50784 -0.51906,0.70156 -0.39806,0.39831 -0.85921,0.64402 -1.4512,0.77321 -0.23354,0.051 -0.7777,0.0522 -1.02983,0.002 -0.40073,-0.0793 -0.84646,-0.27185 -1.1368,-0.49119 l -0.15641,-0.11817 0.0111,0.24988 c 0.009,0.20157 0.0237,0.28876 0.0765,0.45096 0.2255,0.69262 0.84342,1.1901 1.54285,1.24214 l 0.17462,0.013 v 0.49427 0.49427 h -0.14444 c -0.71198,0 -1.54664,-0.422 -2.03476,-1.02878 l -0.12513,-0.15554 -0.10721,0.13473 c -0.15235,0.19147 -0.44023,0.45787 -0.63157,0.58444 -0.42611,0.28189 -0.97978,0.46488 -1.40718,0.46508 h -0.14288 v -0.49741 z m 4.39209,-3.87016 c -0.15514,-0.0515 -0.25786,-0.11663 -0.35579,-0.22556 -0.26455,-0.29424 -0.25319,-0.73852 0.026,-1.01772 0.26105,-0.26105 0.64874,-0.29681 0.95261,-0.0879 0.46313,0.31847 0.40945,1.02878 -0.0966,1.27789 -0.15867,0.0781 -0.38301,0.10081 -0.52625,0.0532 z"
       id="path7923"
       inkscape:export-filename="C:\inputs\clubs.png"
       inkscape:export-xdpi="300"
       inkscape:export-ydpi="300"
       sodipodi:nodetypes="ccsccssscscssccssccccscsssccscccscccsscsscccccsscscc" /></g></svg>
