<?xml version="1.0" encoding="UTF-8" standalone="no"?>
<!-- Created with Inkscape (http://www.inkscape.org/) -->

<svg
   width="55.828922mm"
   height="87.185738mm"
   viewBox="0 0 55.828922 87.185738"
   version="1.1"
   id="svg1"
   xml:space="preserve"
   inkscape:version="1.4.2 (f4327f4, 2025-05-13)"
   sodipodi:docname="figures.svg"
   xmlns:inkscape="http://www.inkscape.org/namespaces/inkscape"
   xmlns:sodipodi="http://sodipodi.sourceforge.net/DTD/sodipodi-0.dtd"
   xmlns="http://www.w3.org/2000/svg"
   xmlns:svg="http://www.w3.org/2000/svg"><sodipodi:namedview
     id="namedview1"
     pagecolor="#505050"
     bordercolor="#eeeeee"
     borderopacity="1"
     inkscape:showpageshadow="0"
     inkscape:pageopacity="0"
     inkscape:pagecheckerboard="0"
     inkscape:deskcolor="#d1d1d1"
     inkscape:document-units="mm"
     inkscape:zoom="0.26480604"
     inkscape:cx="-200.14649"
     inkscape:cy="1051.7132"
     inkscape:window-width="2560"
     inkscape:window-height="1369"
     inkscape:window-x="-8"
     inkscape:window-y="-8"
     inkscape:window-maximized="1"
     inkscape:current-layer="layer1"><inkscape:page
       x="-4.6382071e-14"
       y="0"
       width="55.828918"
       height="87.185738"
       id="page2"
       margin="0"
       bleed="0" /></sodipodi:namedview><defs
     id="defs1" /><g
     inkscape:label="Calque 1"
     inkscape:groupmode="layer"
     id="layer1"
     transform="translate(-36.713365,-476.64661)"><path
       style="fill:#ff0000;fill-opacity:1"
       d="m 36.713365,561.61716 c 0,-4.42545 1.08113,-8.91089 2.85687,-11.85271 2.00047,-3.31413 6.68363,-7.13609 11.52271,-9.40376 1.25525,-0.58823 5.15686,-2.01906 8.67026,-3.17963 6.92192,-2.28651 9.51768,-3.47876 12.06511,-5.54158 7.55912,-6.12113 11.93732,-18.42331 10.25293,-28.80943 -0.2216,-1.36641 -0.35778,-2.52952 -0.30262,-2.58468 0.17856,-0.17857 1.95306,3.94954 2.64815,6.16055 1.35775,4.3188 1.63236,6.24475 1.61752,11.34394 -0.0116,3.98492 -0.10617,5.11426 -0.5792,6.91693 -1.3747,5.23879 -3.22976,8.79096 -6.21464,11.90007 -5.4398,5.66623 -10.05027,7.72863 -21.50229,9.61864 -4.69791,0.77532 -8.57289,1.82361 -10.63671,2.87751 -1.84856,0.94397 -4.28038,2.91915 -5.49569,4.46371 -1.53819,1.95491 -3.121,5.16502 -3.91471,7.93944 -0.34249,1.1972 -0.70483,2.25884 -0.8052,2.3592 -0.10037,0.10037 -0.18249,-0.89332 -0.18249,-2.2082 z m 8.55545,-65.56313 c 1.67728,-2.40027 1.38133,-3.04081 0.68179,-4.40116 -0.41045,-0.79815 -0.62718,-1.7683 -0.70137,-3.13947 -0.0914,-1.68998 -0.0162,-2.16011 0.50685,-3.16895 1.22799,-2.36825 3.41317,-2.6986 6.06156,-0.91636 0.74399,0.50067 1.44539,0.91031 1.55866,0.91031 0.11327,0 0.87302,-0.40169 1.68834,-0.89265 1.54072,-0.92778 4.26646,-1.75318 5.78955,-1.75318 0.81974,0 0.93671,-0.11524 1.67283,-1.64815 1.48953,-3.10184 4.43134,-4.62224 8.45752,-4.37105 2.54715,0.15891 4.30302,0.84729 5.76957,2.26194 1.99322,1.9227 2.79938,4.42919 2.34499,7.29096 l -0.246,1.54933 1.61798,1.2288 c 6.35011,4.82268 9.98333,10.61854 11.68631,18.64245 0.52173,2.45826 0.51054,10.24989 -0.0183,12.74659 -0.90613,4.27781 -3.06966,9.37164 -5.55182,13.07125 -1.10696,1.64989 -3.30758,4.07712 -3.30758,3.64817 0,-0.1052 0.51888,-1.2307 1.15307,-2.5011 2.93156,-5.87247 4.61346,-13.88918 4.31476,-20.56607 -0.3944,-8.81613 -3.17663,-16.16022 -8.1019,-21.38611 -1.89162,-2.00707 -2.07169,-1.97708 -2.11169,0.35174 -0.0248,1.44412 -0.837,4.92931 -1.60675,6.89468 -1.11143,2.83777 -1.921,4.46949 -2.14793,4.32924 -0.12695,-0.0785 -0.23081,-0.66279 -0.23081,-1.29852 0,-1.95531 -0.52487,-5.20888 -1.13167,-7.01499 l -0.57779,-1.71979 -0.19864,3.04271 c -0.10925,1.67349 -0.36269,3.63802 -0.56321,4.36563 l -0.36459,1.32291 -0.18301,-1.32291 c -0.58746,-4.24636 -1.54979,-6.86354 -3.151,-8.56956 -0.82173,-0.87552 -0.82597,-0.89251 -0.18009,-0.72124 0.3638,0.0965 1.01864,0.24006 1.45521,0.31907 l 0.79375,0.14366 -1.02205,-0.93149 c -0.70982,-0.64692 -1.47369,-1.03256 -2.50043,-1.26233 l -1.47837,-0.33085 1.3098,-0.59125 1.30979,-0.59125 -1.38906,-0.0162 c -0.76398,-0.009 -1.38906,-0.11722 -1.38906,-0.24064 0,-0.22308 1.26094,-0.82414 2.77812,-1.32426 0.6895,-0.22728 0.55917,-0.26439 -0.99218,-0.28254 -0.98227,-0.0115 -1.78594,-0.13435 -1.78594,-0.27303 0,-0.33434 1.73303,-0.80286 2.97656,-0.80471 0.54571,-8.2e-4 0.99219,-0.11827 0.99219,-0.26102 0,-0.26042 -0.28738,-0.34809 -2.24896,-0.68608 l -1.05833,-0.18235 0.79375,-0.35012 c 0.43656,-0.19257 1.44859,-0.36288 2.24896,-0.37847 l 1.45521,-0.0283 -1.05834,-0.49404 c -0.58208,-0.27172 -1.59411,-0.60224 -2.24896,-0.73449 l -1.19062,-0.24046 0.74483,-0.30743 c 0.40965,-0.16908 1.22135,-0.30742 1.80376,-0.30742 0.93854,0 1.03985,-0.0602 0.89099,-0.52917 -0.36261,-1.1425 1.54477,-0.23432 2.77794,1.32269 1.37703,1.73864 1.93302,3.48875 2.10145,6.61481 l 0.14968,2.77813 0.52159,-1.5875 c 0.64692,-1.96894 0.73136,-6.13472 0.15285,-7.54063 -1.42528,-3.46372 -4.04757,-4.9784 -7.08845,-4.09439 -1.90359,0.55339 -3.52402,2.18618 -5.09735,5.13623 -1.36677,2.56276 -2.95656,4.42038 -3.11881,3.64426 -0.0544,-0.2603 0.0893,-1.02565 0.31931,-1.70078 0.5167,-1.51642 0.53235,-1.39782 -0.18453,-1.39782 -0.84307,0 -4.13658,1.62214 -5.80571,2.85947 -2.75483,2.04214 -3.90243,3.51064 -7.86306,10.0618 l -2.45317,4.05772 0.55715,1.45592 c 0.72921,1.90554 0.7353,2.57187 0.0153,1.67343 l -0.53008,-0.66146 0.20523,0.79375 c 0.45057,1.74257 0.16764,3.66311 -1.07733,7.31307 -0.67704,1.9849 -1.23097,3.97919 -1.23097,4.43177 0,0.7147 0.0926,0.82287 0.70436,0.82287 0.38739,0 1.21071,-0.29674 1.82958,-0.65943 0.61887,-0.36268 1.74154,-0.7916 2.49481,-0.95315 1.14485,-0.24552 1.4244,-0.42409 1.70365,-1.08822 l 0.33406,-0.79449 0.17094,0.85468 c 0.24854,1.24273 0.25885,1.21493 -0.82126,2.21544 -1.61686,1.49772 -1.93575,2.21687 -1.51953,3.42682 0.77132,2.2422 2.21863,2.96158 5.54132,2.75428 4.81915,-0.30065 6.62607,-2.46696 5.62861,-6.74812 -0.21191,-0.9095 -0.31193,-1.65283 -0.22227,-1.65184 0.0897,10e-4 0.43085,0.39524 0.75821,0.87609 3.12751,4.59404 1.79424,7.52288 -3.8859,8.53625 -1.10052,0.19634 -2.92369,0.36113 -4.05148,0.36621 l -2.05052,0.009 v 0.88634 c 0,0.56286 0.28666,1.28207 0.78545,1.97063 0.86705,1.19693 1.29446,1.48515 2.62709,1.77155 l 0.899,0.1932 -0.58629,-0.82336 c -0.67609,-0.94948 -0.53874,-0.99009 1.50676,-0.44558 1.22097,0.32502 1.38647,0.32285 1.32292,-0.0174 -0.0481,-0.25739 0.38606,-0.54551 1.28413,-0.85222 0.74622,-0.25485 1.69872,-0.68865 2.11667,-0.96401 0.75422,-0.49692 0.75537,-0.50175 0.15395,-0.64691 -0.57084,-0.13777 -0.52748,-0.2229 0.74836,-1.46916 1.69645,-1.65713 2.1816,-2.5423 2.36123,-4.30815 l 0.14219,-1.39772 1.98437,-0.86336 c 4.93279,-2.14615 6.61052,-3.42654 7.91778,-6.04259 0.92102,-1.84313 1.26094,-1.61438 0.961,0.64672 -0.24472,1.84476 -1.27052,3.6439 -2.82495,4.95461 -1.75158,1.47696 -2.62175,2.82489 -4.20279,6.51037 -0.74228,1.73027 -1.87881,4.14104 -2.52563,5.35726 l -1.17603,2.21132 0.72687,-0.17305 c 2.61719,-0.62308 5.24444,-2.75403 7.76269,-6.29628 1.35117,-1.90059 1.36472,-1.91076 1.2138,-0.91113 -0.0839,0.55601 -0.63073,1.99868 -1.21507,3.20593 -1.81026,3.73999 -4.44724,5.6907 -9.84849,7.28547 -6.92508,2.04469 -11.67834,4.05456 -15.90532,6.72542 -1.27331,0.80455 -2.31511,1.3561 -2.31511,1.22568 0,-0.39114 3.72959,-3.64598 6.24645,-5.45132 1.29388,-0.92811 3.50073,-2.31514 4.90411,-3.08228 2.06825,-1.1306 2.69427,-1.62036 3.30477,-2.58545 0.41424,-0.65484 0.79198,-1.27387 0.83941,-1.37563 0.0474,-0.10175 -0.30783,-0.072 -0.78948,0.0662 -0.48165,0.13813 -1.19004,0.25115 -1.57421,0.25115 -0.47819,0 -0.74256,0.1685 -0.8382,0.53423 -0.12629,0.48294 -0.28804,0.5192 -1.6845,0.37762 -3.14777,-0.31912 -4.63546,-1.6387 -5.02133,-4.45391 -0.12033,-0.87797 -0.25459,-1.16703 -0.45086,-0.97077 -0.46635,0.46636 -0.70249,0.31715 -0.70916,-0.44811 -0.004,-0.40018 -0.5095,-1.73467 -1.12448,-2.96553 -0.96264,-1.9267 -1.13229,-3.11914 -2.37491,-2.96883 -5.16627,0.62492 -1.55058,-7.40054 -0.66002,-9.49756 2.01625,-4.7477 -2.71366,-5.79135 2.93196,-13.87053 z m 2.78336,-5.75469 c 0.29375,-0.47294 1.01783,-1.33055 1.60908,-1.90578 0.59125,-0.57524 1.075,-1.18048 1.075,-1.34498 0,-0.1645 -0.40198,-0.76412 -0.89328,-1.33247 l -0.89328,-1.03337 0.1373,1.42896 c 0.11994,1.24819 0.0823,1.40787 -0.29734,1.26218 -0.30934,-0.1187 -0.43465,-0.0216 -0.43465,0.33685 0,0.277 -0.12691,0.83743 -0.28202,1.24539 l -0.28201,0.74176 -0.50585,-0.65839 -0.50586,-0.65838 -0.002,0.79375 c -0.003,1.01397 0.25577,1.98437 0.52895,1.98437 0.11668,0 0.45249,-0.38695 0.74623,-0.85989 z m 2.68408,15.53005 c 0,-0.96272 0.9368,-3.70217 1.57022,-4.59172 0.34118,-0.47915 0.82162,-0.82085 1.15977,-0.82485 0.31752,-0.004 1.41074,-0.291 2.42938,-0.63832 1.01865,-0.34732 1.8858,-0.59827 1.92701,-0.55766 0.19694,0.19409 -0.32116,2.3085 -0.73065,2.98186 -0.35706,0.58714 -0.84326,0.86576 -2.13986,1.22625 -1.33564,0.37134 -1.93663,0.72528 -2.94685,1.7355 -1.12239,1.12239 -1.26902,1.19968 -1.26902,0.66894 z m -0.9525,-6.53422 c 0.17964,-1.16447 0.85488,-2.32666 1.47118,-2.53209 0.54979,-0.18327 0.1806,1.88078 -0.50986,2.85043 -0.81954,1.15093 -1.17007,1.03486 -0.96132,-0.31834 z"
       id="path31-3-4"
       sodipodi:nodetypes="sssssssssssssssssssscsssssssscssssssssssssscsscsssscssccccssssssscsscsscssssscssssssssscsscssssssscssssssssccssscsssssssscsssssscssssssssssssssssscsssscssscssssccccsccsscssssssssss"
       inkscape:export-filename="..\inputs\Q_red.png"
       inkscape:export-xdpi="96"
       inkscape:export-ydpi="96" /></g></svg>
