<?xml version="1.0" encoding="UTF-8" standalone="no"?>
<!-- Created with Inkscape (http://www.inkscape.org/) -->

<svg
   width="11.345333mm"
   height="13.279262mm"
   viewBox="0 0 11.345333 13.279262"
   version="1.1"
   id="svg5"
   xml:space="preserve"
   inkscape:version="1.4.2 (f4327f4, 2025-05-13)"
   sodipodi:docname="symbol.svg"
   inkscape:export-filename="..\7_trefle_bis.png"
   inkscape:export-xdpi="300"
   inkscape:export-ydpi="300"
   xmlns:inkscape="http://www.inkscape.org/namespaces/inkscape"
   xmlns:sodipodi="http://sodipodi.sourceforge.net/DTD/sodipodi-0.dtd"
   xmlns="http://www.w3.org/2000/svg"
   xmlns:svg="http://www.w3.org/2000/svg"><sodipodi:namedview
     id="namedview7"
     pagecolor="#505050"
     bordercolor="#eeeeee"
     borderopacity="1"
     inkscape:showpageshadow="0"
     inkscape:pageopacity="0"
     inkscape:pagecheckerboard="0"
     inkscape:deskcolor="#505050"
     inkscape:document-units="mm"
     showgrid="false"
     inkscape:zoom="1.7069892"
     inkscape:cx="16.988977"
     inkscape:cy="54.774805"
     inkscape:window-width="2560"
     inkscape:window-height="1369"
     inkscape:window-x="-8"
     inkscape:window-y="-8"
     inkscape:window-maximized="1"
     inkscape:current-layer="layer1"
     showguides="false"><inkscape:page
       x="-1.961102e-14"
       y="1.263238e-15"
       width="11.345332"
       height="13.279263"
       id="page2"
       margin="0"
       bleed="0" /></sodipodi:namedview><defs
     id="defs2"><linearGradient
       id="linearGradient4698"
       inkscape:swatch="solid"><stop
         style="stop-color:#2393cd;stop-opacity:1;"
         offset="0"
         id="stop4696" /></linearGradient><linearGradient
       id="linearGradient22870"
       inkscape:swatch="solid"><stop
         style="stop-color:#f1abc9;stop-opacity:1;"
         offset="0"
         id="stop22868" /></linearGradient></defs><g
     inkscape:label="Fond"
     inkscape:groupmode="layer"
     id="layer1"
     transform="translate(-8.6727328,-4.1059707)"><path
       style="fill:#ff0000;fill-opacity:1;stroke-width:0.999998"
       d="M 11.584043,14.365775 C 8.8235825,11.071681 8.6727325,10.883168 8.6727325,10.727697 c 0,-0.05792 0.80743,-1.0696911 1.7943005,-2.2483851 0.98686,-1.178693 2.19258,-2.619331 2.67937,-3.201414 0.936552,-1.119885 1.102072,-1.25841 1.355952,-1.134771 0.0863,0.04204 0.55525,0.552688 1.04204,1.134771 0.48679,0.582083 1.6925,2.022721 2.67937,3.201414 0.98687,1.178694 1.7943,2.1904681 1.7943,2.2483851 0,0.155471 -0.15085,0.343984 -2.91131,3.638078 -2.1903,2.613717 -2.56135,3.019458 -2.76136,3.019458 -0.2,0 -0.57106,-0.40574 -2.761352,-3.019458 z"
       id="path7919"
       inkscape:export-filename="C:\inputs\diamonds.png"
       inkscape:export-xdpi="300"
       inkscape:export-ydpi="300"
       sodipodi:nodetypes="sssssssssss" /></g></svg>
