<?xml version="1.0" encoding="UTF-8" standalone="no"?>
<!-- Created with Inkscape (http://www.inkscape.org/) -->

<svg
   width="10.188116mm"
   height="8.607687mm"
   viewBox="0 0 10.188116 8.607687"
   version="1.1"
   id="svg5"
   xml:space="preserve"
   inkscape:version="1.4.2 (f4327f4, 2025-05-13)"
   sodipodi:docname="symbol.svg"
   inkscape:export-filename="..\7_trefle_bis.png"
   inkscape:export-xdpi="300"
   inkscape:export-ydpi="300"
   xmlns:inkscape="http://www.inkscape.org/namespaces/inkscape"
   xmlns:sodipodi="http://sodipodi.sourceforge.net/DTD/sodipodi-0.dtd"
   xmlns="http://www.w3.org/2000/svg"
   xmlns:svg="http://www.w3.org/2000/svg"><sodipodi:namedview
     id="namedview7"
     pagecolor="#505050"
     bordercolor="#eeeeee"
     borderopacity="1"
     inkscape:showpageshadow="0"
     inkscape:pageopacity="0"
     inkscape:pagecheckerboard="0"
     inkscape:deskcolor="#505050"
     inkscape:document-units="mm"
     showgrid="false"
     inkscape:zoom="1.7069892"
     inkscape:cx="16.988977"
     inkscape:cy="54.774805"
     inkscape:window-width="2560"
     inkscape:window-height="1369"
     inkscape:window-x="-8"
     inkscape:window-y="-8"
     inkscape:window-maximized="1"
     inkscape:current-layer="layer1"
     showguides="false"><inkscape:page
       x="-2.8641555e-14"
       y="0"
       width="10.188115"
       height="8.607687"
       id="page2"
       margin="0"
       bleed="0" /></sodipodi:namedview><defs
     id="defs2"><linearGradient
       id="linearGradient4698"
       inkscape:swatch="solid"><stop
         style="stop-color:#2393cd;stop-opacity:1;"
         offset="0"
         id="stop4696" /></linearGradient><linearGradient
       id="linearGradient22870"
       inkscape:swatch="solid"><stop
         style="stop-color:#f1abc9;stop-opacity:1;"
         offset="0"
         id="stop22868" /></linearGradient></defs><g
     inkscape:label="Fond"
     inkscape:groupmode="layer"
     id="layer1"
     transform="translate(-9.0286175,-40.160976)"><path
       style="fill:#ff0000;fill-opacity:1;stroke-width:1"
       d="m 13.899396,48.74731 c -0.0582,-0.01095 -0.17727,-0.0543 -0.26459,-0.09634 -0.15346,-0.07389 -0.21888,-0.136414 -1.96458,-1.877434 -1.772521,-1.767777 -2.006651,-2.011458 -2.177851,-2.266662 -0.78515,-1.170447 -0.55067,-2.797639 0.53168,-3.689658 0.981691,-0.809056 2.321501,-0.875254 3.377751,-0.166893 0.15223,0.102087 0.54362,0.473219 0.66295,0.628634 l 0.0569,0.07408 0.0569,-0.07408 c 0.11929,-0.155349 0.5107,-0.526526 0.66278,-0.628517 0.55679,-0.373389 1.22572,-0.543609 1.864,-0.474322 1.65704,0.179879 2.78536,1.720514 2.45333,3.349827 -0.0969,0.475291 -0.29649,0.875999 -0.63633,1.277262 -0.0789,0.09313 -0.95604,0.980277 -1.94925,1.971429 -1.75918,1.755549 -1.80993,1.804029 -1.96458,1.87694 -0.23948,0.112905 -0.45973,0.142642 -0.70908,0.09574 z"
       id="path7921"
       inkscape:export-filename="C:\inputs\hearts.png"
       inkscape:export-xdpi="300"
       inkscape:export-ydpi="300"
       sodipodi:nodetypes="ssscssccccscccsss" /></g></svg>
