<?xml version="1.0" encoding="UTF-8" standalone="no"?>
<!-- Created with Inkscape (http://www.inkscape.org/) -->

<svg
   width="75.815086mm"
   height="102.89427mm"
   viewBox="0 0 75.815086 102.89427"
   version="1.1"
   id="svg1"
   xml:space="preserve"
   inkscape:version="1.4.2 (f4327f4, 2025-05-13)"
   sodipodi:docname="figures.svg"
   xmlns:inkscape="http://www.inkscape.org/namespaces/inkscape"
   xmlns:sodipodi="http://sodipodi.sourceforge.net/DTD/sodipodi-0.dtd"
   xmlns="http://www.w3.org/2000/svg"
   xmlns:svg="http://www.w3.org/2000/svg"><sodipodi:namedview
     id="namedview1"
     pagecolor="#505050"
     bordercolor="#eeeeee"
     borderopacity="1"
     inkscape:showpageshadow="0"
     inkscape:pageopacity="0"
     inkscape:pagecheckerboard="0"
     inkscape:deskcolor="#d1d1d1"
     inkscape:document-units="mm"
     inkscape:zoom="0.26480604"
     inkscape:cx="-200.14649"
     inkscape:cy="1051.7132"
     inkscape:window-width="2560"
     inkscape:window-height="1369"
     inkscape:window-x="-8"
     inkscape:window-y="-8"
     inkscape:window-maximized="1"
     inkscape:current-layer="layer1"><inkscape:page
       x="0"
       y="0"
       width="75.815086"
       height="102.89427"
       id="page2"
       margin="0"
       bleed="0" /></sodipodi:namedview><defs
     id="defs1" /><g
     inkscape:label="Calque 1"
     inkscape:groupmode="layer"
     id="layer1"
     transform="translate(96.598164,-413.56958)"><path
       style="fill:#ff0000;fill-opacity:1"
       d="m -42.344812,516.0749 c -5.9446,-1.86709 -11.70201,-6.76207 -14.85388,-12.62886 -2.28281,-4.24915 -3.27214,-8.44891 -3.25354,-13.81138 0.0151,-4.3651 0.39718,-6.35441 1.91336,-9.96302 l 0.79916,-1.90206 -0.94525,0.90546 c -2.38227,2.28199 -4.58698,6.22028 -5.2596,9.39529 -1.29608,6.11793 0.81449,13.68811 5.5831,20.02537 1.59155,2.11512 4.57537,5.16119 6.45567,6.59037 l 0.92604,0.70387 -1.10875,-0.24158 c -1.96108,-0.4273 -3.58406,-1.04628 -6.82875,-2.60439 -6.41376,-3.07992 -10.38611,-7.03988 -13.69158,-13.64889 -2.17066,-4.34005 -3.10946,-8.25417 -3.10946,-12.96421 0,-3.07971 0.5866,-5.86615 1.86601,-8.86392 l 0.50814,-1.19062 -0.80295,0.92604 c -1.1107,1.28096 -2.25524,3.70654 -2.9339,6.21771 -0.83895,3.10424 -0.83508,8.61419 0.008,11.86447 0.72757,2.80386 2.10416,6.30385 3.37994,8.59357 l 0.93196,1.67263 -0.88346,-0.45573 c -1.64616,-0.84917 -4.58002,-3.19152 -6.27986,-5.01377 -4.03577,-4.32636 -6.70629,-9.82439 -8.28547,-17.05805 -0.43084,-1.97356 -0.58326,-3.8777 -0.70947,-8.86354 l -0.16074,-6.35 -0.59354,1.4201 c -1.11598,2.67004 -1.47917,5.32472 -1.30721,9.55475 0.0912,2.24428 0.37225,4.83201 0.67579,6.22307 0.28578,1.30969 0.59841,2.73844 0.69474,3.175 l 0.17513,0.79375 -0.54773,-0.66146 c -0.89454,-1.08027 -2.8605,-5.24652 -3.70608,-7.85387 -1.16114,-3.58038 -1.63102,-6.3713 -1.79589,-10.66696 -0.16833,-4.38557 0.12194,-7.10465 1.22449,-11.47027 1.85287,-7.33655 5.10235,-13.02335 10.4163,-18.22922 1.44829,-1.41882 2.54846,-2.57968 2.44482,-2.57968 -0.10364,0 -1.21938,0.534 -2.47942,1.18668 -5.36505,2.77898 -8.08388,5.98744 -11.42996,13.48836 -0.69096,1.54893 -1.21432,2.43812 -1.26874,2.15557 -0.1764,-0.91601 0.80205,-5.86329 1.72927,-8.74357 1.83677,-5.7057 4.96869,-10.91828 9.10492,-15.15369 3.54929,-3.6344 6.84107,-6.00756 12.0334,-8.67534 l 2.88596,-1.48277 -3.01038,0.10074 c -3.58294,0.1199 -3.5778,0.11018 1.15829,-2.19297 5.36452,-2.60873 11.60164,-4.22948 16.27188,-4.22831 5.57252,10e-4 11.61486,1.87568 16.40416,5.08846 0.94589,0.63452 1.87361,1.24699 2.06161,1.36105 0.34868,0.21155 -1.12125,-2.21797 -2.238,-3.69898 -0.33955,-0.4503 -0.61736,-0.89678 -0.61736,-0.99219 0,-0.38854 1.06524,-0.12778 2.58945,0.63388 2.37171,1.18516 4.00561,3.12063 5.88434,6.97045 3.43287,7.03448 3.91589,11.68221 1.81553,17.46962 -0.41845,1.153 -0.70891,2.14827 -0.64547,2.21171 0.23021,0.23021 2.12158,-3.03359 2.87985,-4.96954 0.58673,-1.49799 0.80748,-2.56803 0.90064,-4.36562 0.16494,-3.18257 -0.35374,-5.28385 -2.28584,-9.26042 -1.662,-3.42066 -2.2947,-5.09553 -2.0263,-5.36394 0.33282,-0.33281 2.06605,0.86631 3.51625,2.4327 1.74156,1.88109 2.60947,3.6921 3.24338,6.7677 l 0.46352,2.24896 0.29752,-1.05834 c 0.16363,-0.58208 0.30655,-1.41552 0.31759,-1.85208 0.011,-0.43656 0.11135,-1.02717 0.22291,-1.31246 0.16877,-0.43158 0.28785,-0.29826 0.70901,0.79375 0.38326,0.99378 0.50203,1.9549 0.48914,3.95829 -0.0147,2.27877 -0.11438,2.85868 -0.71871,4.18 -0.38593,0.8438 -0.94381,1.87421 -1.23974,2.28981 -0.29594,0.4156 -0.53806,0.82655 -0.53806,0.91323 0,0.0867 0.46849,0.15759 1.0411,0.15759 1.60811,0 2.37526,0.40897 2.83611,1.51194 0.83237,1.99215 -0.41004,5.57361 -2.81599,8.11755 l -1.34572,1.4229 0.69687,1.55141 c 1.76524,3.92987 0.23172,7.19643 -0.54825,9.17646 -2.6597,6.75189 4.0842,8.37214 1.63143,15.5631 -0.67704,1.9849 -1.23097,3.97919 -1.23097,4.43177 -0.13892,1.44397 0.0969,2.78033 0.41703,4.1755 0.89226,3.84736 0.411,6.33224 -1.60479,8.28603 l -0.92891,0.90033 v -1.75867 c 0,-0.96727 -0.14191,-2.38961 -0.31537,-3.16076 l -0.31536,-1.40208 -0.20819,1.55256 c -0.33075,2.46669 -1.45256,6.82999 -2.36961,9.21668 -0.72773,1.894 -1.10112,2.45192 -2.7201,4.06456 -1.06754,1.06335 -2.87417,2.46804 -4.19053,3.2582 -2.66892,1.60208 -3.42965,2.62342 -3.98111,5.34499 l -0.34415,1.69843 -0.43848,-1.5875 c -0.86258,-3.123 -1.07237,-5.19738 -0.92297,-9.12653 l 0.14592,-3.83806 -0.66959,1.42301 c -2.54427,5.40701 -2.03559,12.48399 1.15988,16.1369 0.65328,0.74679 1.08925,1.34603 0.96882,1.33164 -0.12042,-0.0144 -0.73854,-0.18935 -1.37359,-0.38881 z m 1.99255,-23.87728 c 0.84884,-0.42579 1.81986,-0.85997 2.15782,-0.96486 0.61385,-0.19052 0.61402,-0.18984 0.17169,0.66552 -0.42413,0.82019 -0.42215,0.84842 0.047,0.67086 0.95927,-0.36308 2.11411,-1.29924 2.69401,-2.18388 0.83419,-1.27258 1.40678,-3.75665 1.31435,-5.70206 -0.0789,-1.66122 -0.0799,-1.66309 -0.87276,-1.63471 -0.43656,0.0156 -1.74625,0.30164 -2.91042,0.6356 -3.02837,0.86873 -7.70781,0.90033 -10.31875,0.0697 -1.01865,-0.32407 -2.20307,-0.87339 -2.63206,-1.22072 l -0.77999,-0.63149 0.31241,-1.6897 c 0.17183,-0.92934 0.72215,-2.88033 1.22294,-4.33554 l 0.91052,-2.64584 0.0201,1.77292 c 0.0438,3.86469 0.93904,5.67562 3.37111,6.81883 3.34385,1.57179 10.08208,0.80491 12.1974,-1.3882 1.04941,-1.088 1.38489,-1.99436 1.38489,-3.74149 0,-1.59582 -0.81581,-2.97882 -2.52715,-4.28412 -1.20128,-0.91627 -0.8105,-1.12644 0.68031,-0.36589 l 1.1031,0.56276 -0.18173,-0.87803 c -0.0999,-0.48291 -0.58111,-1.88648 -1.06923,-3.11904 -0.48813,-1.23256 -0.8476,-2.28092 -0.79883,-2.32969 0.15966,-0.15966 1.97848,2.92158 2.57707,4.36578 0.43736,1.05523 0.75561,1.45402 1.26066,1.57971 0.37158,0.0925 1.48531,0.50132 2.47496,0.90856 0.98964,0.40723 2.21003,0.81746 2.71197,0.91163 0.78515,0.14729 0.91262,0.0997 0.91262,-0.34106 0,-0.66353 -0.99639,-3.51946 -2.33418,-6.69037 -1.73188,-4.10504 -1.76722,-5.73748 -0.17759,-8.20483 0.66874,-1.038 0.92354,-1.72968 0.9216,-2.50188 -0.003,-1.31626 -1.4074,-5.38207 -2.8329,-8.20305 -1.06199,-2.10162 -1.0662,-2.10583 -1.25408,-1.25043 -0.18415,0.83843 -1.31063,2.4331 -1.71876,2.4331 -0.11281,0 -0.41504,-0.56555 -0.67162,-1.25677 -0.57995,-1.56239 -2.02182,-4.29546 -3.75504,-7.11771 -1.23619,-2.01293 -1.33603,-2.30645 -1.49705,-4.40132 -0.49838,-6.48371 -3.19922,-10.17734 -8.86793,-12.12766 -0.79376,-0.2731 -1.75199,-0.4947 -2.12939,-0.49244 -0.54497,0.003 -0.31808,0.20744 1.10254,0.99219 3.43404,1.89695 5.6925,4.37228 7.16731,7.85553 0.67172,1.58649 0.80657,2.29684 0.90633,4.77422 l 0.1172,2.91042 -1.02103,-0.95534 c -2.39017,-2.23639 -4.7584,-3.77464 -6.68711,-4.34353 -0.59801,-0.17639 -0.57884,-0.11431 0.29882,0.96769 0.95018,1.17141 2.05996,3.14789 2.05996,3.66872 0,0.15656 -0.44435,-0.0173 -0.98746,-0.38634 -1.32723,-0.90187 -1.47474,-0.84832 -0.88478,0.32119 0.58504,1.15978 0.91303,2.18282 0.69981,2.18282 -0.0824,0 -1.2,-0.4729 -2.48364,-1.05089 -3.0672,-1.38109 -4.66779,-1.70433 -7.39961,-1.49434 -2.4708,0.18992 -4.43287,0.77661 -7.70021,2.30248 -2.8086,1.31164 -3.11636,1.31771 -2.24525,0.0443 0.87987,-1.2862 0.73875,-2.79891 -0.47923,-5.13697 -0.48021,-0.92183 -0.91941,-1.7826 -0.97599,-1.91283 -0.0569,-0.13086 0.44527,-0.17498 1.12258,-0.0986 1.48831,0.16775 1.57838,-0.15277 0.36556,-1.30072 -1.97708,-1.87133 -3.38566,-1.83402 -4.83578,0.1281 -2.06993,2.80076 -2.13739,6.08903 -0.17946,8.7471 l 0.65488,0.88906 -0.63102,-0.19498 c -1.11909,-0.34578 -2.0129,-0.88807 -3.00336,-1.82218 l -0.96864,-0.91355 0.17627,0.84088 c 0.29338,1.3995 1.25954,2.89956 2.23276,3.46657 0.99357,0.57887 3.43451,0.73269 5.42987,0.34218 l 1.05833,-0.20713 -0.66146,0.53005 c -0.3638,0.29152 -2.0902,1.13978 -3.83645,1.88502 -4.40599,1.88031 -6.56288,3.21197 -8.72895,5.38922 -1.55435,1.56237 -4.10334,5.19613 -4.10334,5.84958 0,0.10038 0.75517,-0.52392 1.67817,-1.38733 2.88369,-2.69756 6.38044,-4.79267 10.06116,-6.02824 3.07878,-1.03351 3.18988,-0.88645 0.90602,1.19924 -4.83244,4.41312 -7.94652,10.16677 -9.06987,16.75773 -0.48285,2.83302 -0.51211,5.46756 -0.0817,7.36065 l 0.31875,1.40209 0.21985,-2.38125 c 0.77407,-8.38388 5.32775,-16.20863 12.08232,-20.76144 2.08089,-1.40259 6.31743,-3.40812 9.15305,-4.33296 2.4292,-0.79228 5.69652,-1.57643 5.8653,-1.40766 0.063,0.063 -1.05232,0.73587 -2.4785,1.49525 -3.14515,1.67465 -6.24559,3.8486 -8.39821,5.88861 l -1.60318,1.51931 2.24896,-1.02721 c 3.72293,-1.70046 3.76479,-1.64477 0.90804,1.20811 -1.5294,1.52733 -3.04525,3.33835 -3.62644,4.33259 -1.20102,2.05455 -2.51276,6.00567 -2.8284,8.51945 -0.30252,2.4093 0.0846,6.38558 0.78215,8.03403 l 0.54775,1.29442 -0.14112,-1.32498 c -0.16183,-1.51945 0.20974,-4.871 0.79399,-7.16171 0.9598,-3.7632 2.87796,-7.32479 5.21768,-9.68809 0.83674,-0.84517 1.63197,-1.53668 1.76718,-1.53668 0.1352,0 0.38026,0.64761 0.54458,1.43913 0.49792,2.39844 1.71925,3.43628 4.86694,4.13573 1.54233,0.34272 3.07406,1.15801 3.26398,1.73731 0.0672,0.20484 -0.43242,0.29269 -1.5671,0.27555 -0.91613,-0.0138 -2.09114,0.12103 -2.61113,0.29969 l -0.94543,0.32485 1.15371,1.25168 c 1.49166,1.61832 2.52143,3.73705 2.66648,5.48623 0.0634,0.76495 -0.0899,2.53092 -0.34084,3.92439 -0.3807,2.11436 -0.4034,2.75357 -0.13722,3.86316 0.65052,2.71167 2.68345,4.39785 6.14319,5.09536 l 1.77362,0.35758 -1.03217,1.30845 c -0.56769,0.71964 -0.99947,1.34114 -0.9595,1.38111 0.0921,0.0921 4.41658,-0.42801 4.86058,-0.58452 0.51887,-0.18292 0.39283,0.23022 -0.41139,1.34846 -1.20734,1.67874 -1.22221,1.72292 -0.48562,1.44287 0.36003,-0.13688 1.3491,-0.59725 2.19794,-1.02303 z m 2.89909,-32.4479 c -0.31567,-0.48178 -1.04689,-0.83515 -2.84456,-1.37464 -3.09001,-0.92735 -4.19973,-1.85918 -4.19973,-3.52653 0,-0.95985 0.0668,-1.09578 0.46302,-0.94279 0.25466,0.0983 1.23693,0.35318 2.18282,0.56637 3.1606,0.71234 4.14556,1.42127 4.88451,3.51569 0.72254,2.04791 0.41998,3.14468 -0.48606,1.7619 z m 0.0965,-5.92833 c -0.88552,-0.88552 -1.03141,-1.62527 -0.32052,-1.62527 0.76882,0 1.64637,0.77532 1.64637,1.45459 0,0.97713 -0.46016,1.03637 -1.32585,0.17068 z m -27.17925,-8.87746 c 1.44296,-1.27523 3.70762,-2.40596 6.41951,-3.20522 3.07942,-0.90758 5.4319,-0.80478 7.88833,0.34472 1.58093,0.73981 3.61393,2.26087 3.61393,2.7039 0,0.11512 -0.44649,0.0982 -0.99219,-0.0377 -0.54571,-0.13584 -2.7186,-0.31759 -4.82865,-0.40389 -4.12843,-0.16883 -7.19176,0.11545 -10.62741,0.98624 -1.11565,0.28277 -2.12769,0.50917 -2.24896,0.50311 -0.12128,-0.006 0.22767,-0.40708 0.77544,-0.89117 z m 36.14627,35.98135 c 1.40594,-1.28226 2.413,-3.02456 2.413,-4.17471 0,-0.55359 -0.0726,-1.00653 -0.1614,-1.00653 -0.59449,0 -3.4756,1.8663 -4.21544,2.73064 -1.09693,1.28151 -1.81847,3.31047 -1.57366,4.42508 l 0.17716,0.8066 1.23302,-0.98273 c 0.67817,-0.5405 1.63546,-1.34976 2.12732,-1.79835 z m -29.87279,-46.33653 c -1.03462,-1.96449 -1.27331,-2.76555 -0.82405,-2.76555 0.44513,0 2.30878,1.39397 3.83532,2.86873 1.72209,1.66369 1.76558,1.51608 0.42896,-1.45587 -1.56042,-3.46957 -4.72624,-5.64921 -9.03692,-6.22184 -4.02325,-0.53445 -7.03432,0.39471 -8.72483,2.69231 -0.49706,0.67556 -1.34944,2.93934 -1.64378,4.36563 l -0.16381,0.79375 0.46109,-0.65129 c 2.51766,-3.55616 4.2174,-4.65404 6.90447,-4.45967 2.22099,0.16065 3.55799,0.96027 6.76864,4.04813 1.59129,1.53044 2.92777,2.78262 2.96994,2.78262 0.0422,0 -0.39659,-0.89863 -0.97503,-1.99695 z m 22.23685,-7.32106 c -0.77055,-2.05945 -1.91037,-3.67045 -3.86266,-5.45937 -3.29008,-3.01476 -7.09355,-4.25959 -13.65084,-4.46775 -3.27808,-0.10406 -4.55293,-0.0396 -6.08541,0.30779 -3.95021,0.89542 -3.54879,1.07774 2.3793,1.08066 4.87769,0.002 5.71581,0.0688 7.72063,0.61168 2.60908,0.70648 5.28964,1.93656 7.54062,3.46033 1.77052,1.19851 5.22955,4.51036 5.9049,5.65364 0.64727,1.09574 0.67523,0.47486 0.0535,-1.18698 z"
       id="path31-7"
       sodipodi:nodetypes="cssscsssscssssscsscscsssscsssscsssssssssssscsscsssssssssssssscssssssssssscsssssscsscssssscsscsssccsssssssssscsscsssssscsssssssssscssssssscssscssssssssssssssssscsscssscssssssssscsssssscssssscssssssssscssssscssssssssssssssssssssssssssssssssscssssssssscssssssssscsssss"
       inkscape:export-filename="..\inputs\K_red.png"
       inkscape:export-xdpi="96"
       inkscape:export-ydpi="96" /></g></svg>
