<?xml version="1.0" encoding="UTF-8" standalone="no"?>
<!-- Created with Inkscape (http://www.inkscape.org/) -->

<svg
   width="10.184774mm"
   height="10.89829mm"
   viewBox="0 0 10.184774 10.89829"
   version="1.1"
   id="svg5"
   xml:space="preserve"
   inkscape:version="1.4.2 (f4327f4, 2025-05-13)"
   sodipodi:docname="symbol.svg"
   inkscape:export-filename="..\7_trefle_bis.png"
   inkscape:export-xdpi="300"
   inkscape:export-ydpi="300"
   xmlns:inkscape="http://www.inkscape.org/namespaces/inkscape"
   xmlns:sodipodi="http://sodipodi.sourceforge.net/DTD/sodipodi-0.dtd"
   xmlns="http://www.w3.org/2000/svg"
   xmlns:svg="http://www.w3.org/2000/svg"><sodipodi:namedview
     id="namedview7"
     pagecolor="#505050"
     bordercolor="#eeeeee"
     borderopacity="1"
     inkscape:showpageshadow="0"
     inkscape:pageopacity="0"
     inkscape:pagecheckerboard="0"
     inkscape:deskcolor="#505050"
     inkscape:document-units="mm"
     showgrid="false"
     inkscape:zoom="1.7069892"
     inkscape:cx="16.988977"
     inkscape:cy="54.774805"
     inkscape:window-width="2560"
     inkscape:window-height="1369"
     inkscape:window-x="-8"
     inkscape:window-y="-8"
     inkscape:window-maximized="1"
     inkscape:current-layer="layer1"
     showguides="false"><inkscape:page
       x="4.3113575e-16"
       y="0"
       width="10.184773"
       height="10.89829"
       id="page2"
       margin="0"
       bleed="0" /></sodipodi:namedview><defs
     id="defs2"><linearGradient
       id="linearGradient4698"
       inkscape:swatch="solid"><stop
         style="stop-color:#2393cd;stop-opacity:1;"
         offset="0"
         id="stop4696" /></linearGradient><linearGradient
       id="linearGradient22870"
       inkscape:swatch="solid"><stop
         style="stop-color:#f1abc9;stop-opacity:1;"
         offset="0"
         id="stop22868" /></linearGradient></defs><g
     inkscape:label="Fond"
     inkscape:groupmode="layer"
     id="layer1"
     transform="translate(-9.2519873,-21.675419)"><path
       style="fill:#000000;fill-opacity:1;stroke-width:1"
       d="m 12.0613,32.076196 v -0.497417 h 0.0718 c 0.0395,0 0.15138,-0.01502 0.24871,-0.03338 0.67419,-0.127161 1.23571,-0.646875 1.4047,-1.300123 0.043,-0.166025 0.0738,-0.450579 0.0588,-0.542772 l -0.0109,-0.06699 -0.11926,0.08986 c -0.34608,0.260729 -0.77106,0.440554 -1.20928,0.511693 -0.27404,0.04449 -0.71525,0.03798 -0.98854,-0.01459 -0.57286,-0.110187 -1.08382,-0.39159 -1.49437,-0.823013 -0.9849297,-1.034995 -1.0315197,-2.627796 -0.10893,-3.724181 0.0842,-0.100053 0.97086,-0.997454 1.97038,-1.994224 1.72069,-1.715958 1.82544,-1.816307 1.97049,-1.887567 0.19574,-0.09616 0.35232,-0.128115 0.56562,-0.115422 0.19576,0.01165 0.33321,0.05426 0.49827,0.154472 0.0802,0.04869 0.70637,0.661971 2.01301,1.971584 1.7202,1.724106 1.90964,1.920721 2.03684,2.113911 0.33352,0.506533 0.46844,0.957582 0.46812,1.564998 -2.6e-4,0.491357 -0.0821,0.83872 -0.2971,1.260474 -0.37388,0.733523 -1.00822,1.238648 -1.82418,1.452601 -0.28422,0.07453 -0.80936,0.09268 -1.13006,0.03906 -0.40514,-0.06773 -0.83621,-0.247504 -1.17318,-0.48927 l -0.15695,-0.112606 v 0.177609 c 0,0.905491 0.71925,1.674618 1.64571,1.759841 l 0.15346,0.01412 v 0.494377 0.494375 h -0.1043 c -0.2752,0 -0.6981,-0.0946 -0.99929,-0.2235 -0.44983,-0.192532 -0.89194,-0.544049 -1.1696,-0.929941 -0.0297,-0.04128 -0.0314,-0.04082 -0.0798,0.0209 -0.31872,0.406804 -0.63986,0.669235 -1.06497,0.870281 -0.31097,0.14706 -0.78124,0.26177 -1.07468,0.26214 l -0.10054,2.1e-4 v -0.497417 z"
       id="path7925"
       inkscape:export-filename="C:\inputs\spades.png"
       inkscape:export-xdpi="300"
       inkscape:export-ydpi="300"
       sodipodi:nodetypes="ccsscscsssssssssssscssscsscccssscscccc" /></g></svg>
