<?xml version="1.0" encoding="UTF-8" standalone="no"?>
<!-- Created with Inkscape (http://www.inkscape.org/) -->

<svg
   width="83.379318mm"
   height="94.006828mm"
   viewBox="0 0 83.379318 94.006828"
   version="1.1"
   id="svg1"
   xml:space="preserve"
   inkscape:version="1.4.2 (f4327f4, 2025-05-13)"
   sodipodi:docname="assets.svg"
   xmlns:inkscape="http://www.inkscape.org/namespaces/inkscape"
   xmlns:sodipodi="http://sodipodi.sourceforge.net/DTD/sodipodi-0.dtd"
   xmlns="http://www.w3.org/2000/svg"
   xmlns:svg="http://www.w3.org/2000/svg"><sodipodi:namedview
     id="namedview1"
     pagecolor="#505050"
     bordercolor="#eeeeee"
     borderopacity="1"
     inkscape:showpageshadow="0"
     inkscape:pageopacity="0"
     inkscape:pagecheckerboard="0"
     inkscape:deskcolor="#d1d1d1"
     inkscape:document-units="mm"
     inkscape:zoom="0.3744923"
     inkscape:cx="-774.38174"
     inkscape:cy="471.30475"
     inkscape:window-width="2560"
     inkscape:window-height="1369"
     inkscape:window-x="-8"
     inkscape:window-y="-8"
     inkscape:window-maximized="1"
     inkscape:current-layer="layer1"><inkscape:page
       x="0"
       y="0"
       width="83.379318"
       height="94.006828"
       id="page2"
       margin="0"
       bleed="0" /></sodipodi:namedview><defs
     id="defs1" /><g
     inkscape:label="Calque 1"
     inkscape:groupmode="layer"
     id="layer1"
     transform="translate(203.19237,-430.56543)"><path
       style="fill:#000000"
       d="m -160.18201,524.43145 c -6.56975,-0.69188 -12.65781,-2.4828 -18.50427,-5.4434 -5.09976,-2.58248 -8.21831,-4.82715 -12.10183,-8.71067 -6.24703,-6.24703 -10.10286,-13.1348 -11.82153,-21.11712 -0.47539,-2.20794 -0.58082,-3.55737 -0.58271,-7.45818 -0.003,-5.60921 0.43166,-8.52981 1.95202,-13.12469 2.03168,-6.14014 4.9783,-10.96871 9.63008,-15.78059 l 2.88174,-2.98092 -1.07334,-2.31315 c -1.71708,-3.70044 -2.01726,-6.82766 -0.98807,-10.29333 1.24721,-4.19982 5.32907,-6.92318 9.92398,-6.62116 2.58028,0.16959 4.54324,0.9325 7.07486,2.74964 2.03074,1.45761 2.06487,1.4704 3.1116,1.16609 6.167,-1.79288 10.96726,-2.42212 15.06924,-1.97534 l 2.36924,0.25805 1.65102,-0.87615 c 2.84836,-1.51156 5.62986,-1.14233 7.67553,1.01889 0.45973,0.48569 1.01,1.30756 1.22284,1.82636 0.31013,0.75599 0.64325,1.03953 1.67767,1.42801 9.20667,3.45761 15.57172,10.74389 14.41537,16.50176 -0.74904,3.72975 -0.15172,5.66326 3.05885,9.90139 3.46476,4.57369 3.91256,5.74582 3.13705,8.21136 -0.43271,1.3757 -0.42849,1.47683 0.13997,3.34834 1.12873,3.71611 0.1198,7.33203 -2.88393,10.33576 -1.50039,1.50039 -1.56688,1.6246 -1.67581,3.13053 -0.15375,2.12546 -1.43891,4.69971 -3.07041,6.15018 -2.22358,1.97686 -5.02419,2.88793 -8.8774,2.88793 -3.56609,0 -6.76354,-1.12029 -9.88694,-3.46409 -0.75774,-0.5686 -1.49583,-1.03383 -1.64019,-1.03383 -0.50347,0 -1.58515,1.74087 -1.86918,3.00828 -0.92942,4.14728 2.01755,8.88918 8.52961,13.72476 1.57193,1.16725 2.81125,2.16909 2.75403,2.2263 -0.12997,0.12997 -5.64831,-1.53412 -7.90859,-2.38489 -6.55054,-2.46561 -9.73277,-6.16872 -9.73277,-11.32585 0,-1.54254 1.00962,-5.21375 1.64407,-5.97821 0.47898,-0.57713 0.10353,-0.62374 -2.46947,-0.30656 -2.89332,0.35666 -7.96734,0.1677 -9.89022,-0.36833 -3.87204,-1.07937 -6.72418,-2.76189 -9.55259,-5.63522 -5.0004,-5.07982 -7.83766,-13.55844 -7.03617,-21.02634 0.14717,-1.37132 0.22785,-2.53422 0.17928,-2.58422 -0.0486,-0.05 -0.38421,0.84578 -0.74587,1.99063 -0.86756,2.74631 -1.29744,5.81727 -1.18901,8.494 0.0485,1.19638 -0.005,2.17495 -0.11973,2.17461 -0.41483,-10e-4 -1.32014,-2.57888 -1.90072,-5.41179 -0.67307,-3.28426 -0.8302,-3.27233 -1.57487,0.1195 -1.31427,5.98629 -0.80094,12.70177 1.41714,18.53929 l 0.52194,1.37363 -0.67782,-0.6299 c -0.99243,-0.92225 -2.82333,-3.57104 -3.72733,-5.39239 -1.49857,-3.01925 -2.41984,-6.64824 -2.48076,-9.77204 -0.0575,-2.95043 -0.4327,-0.28951 -0.46656,3.30927 -0.0559,5.94643 1.28219,11.31414 4.31205,17.29697 1.50013,2.96219 1.60122,3.25675 0.96134,2.80111 -1.26277,-0.89917 -4.20874,-4.19565 -5.03124,-5.62986 -1.08279,-1.88805 -1.00589,-1.27157 0.24312,1.94926 2.07898,5.36104 6.43595,11.42258 11.23018,15.62373 7.89885,6.92171 18.02348,11.39789 33.45323,14.78995 3.36539,0.73984 3.92938,0.92879 3.30729,1.10803 -1.10811,0.31928 -11.51403,0.46326 -14.06501,0.19461 z m 28.06867,-32.47892 c 2.68037,-1.17489 4.0845,-3.33711 3.83735,-5.90916 -0.13201,-1.37389 -1.26406,-3.41525 -1.89394,-3.41525 -0.19859,0 -1.04493,0.41181 -1.88077,0.91512 -0.83583,0.50331 -2.48737,1.24745 -3.67007,1.65365 -1.80402,0.61957 -2.57653,0.7372 -4.79621,0.7303 -2.32051,-0.007 -2.82522,-0.0954 -4.10478,-0.71729 -0.80242,-0.38999 -2.08869,-1.24662 -2.85839,-1.90362 -1.6945,-1.44639 -2.81657,-1.81522 -5.15795,-1.69541 -1.50169,0.0768 -1.70901,0.0378 -1.31667,-0.24815 0.52208,-0.38048 3.6066,-1.38043 4.25816,-1.38043 0.33772,0 0.35585,-0.066 0.0908,-0.33073 -0.50046,-0.49991 -4.91517,-0.38925 -6.36446,0.15954 -0.64117,0.24278 -1.21668,0.3905 -1.27893,0.32825 -0.30496,-0.30496 2.90461,-2.04926 4.92344,-2.67573 3.6309,-1.12673 3.55293,-1.05524 1.75457,-1.60876 -1.1219,-0.34531 -2.34997,-0.48142 -4.1872,-0.46405 l -2.59971,0.0246 0.74762,-0.49838 c 1.09753,-0.73164 3.72025,-1.48597 6.36293,-1.83007 2.77834,-0.36176 3.78632,-0.78929 4.70709,-1.99648 2.67783,-3.51081 2.51811,-8.40169 -0.37627,-11.52214 -1.09928,-1.18514 -1.41426,-1.35906 -3.3103,-1.82783 -2.20493,-0.54513 -3.36659,-1.24805 -4.58394,-2.77373 -0.40093,-0.50248 -0.91457,-0.91361 -1.14141,-0.91362 -0.73797,-10e-6 -3.51945,1.84671 -5.10393,3.38868 l -1.54762,1.50611 0.18857,-0.92605 c 0.26856,-1.31889 1.29831,-3.40881 2.2389,-4.54398 3.12065,-3.76619 9.74046,-5.35204 13.2456,-3.17312 0.74138,0.46087 1.41496,0.83794 1.49684,0.83794 0.0819,0 0.0677,-0.74414 -0.0316,-1.65365 -0.20219,-1.85277 -1.30952,-4.47359 -2.55409,-6.04498 -0.92301,-1.1654 -0.71254,-1.2823 0.86224,-0.47891 1.66737,0.85064 3.52842,2.74509 4.20895,4.28452 0.67592,1.529 0.75501,3.17896 0.38954,8.12635 -0.19786,2.67844 -0.17537,2.86831 0.62688,5.29167 1.45291,4.38878 1.33426,7.50648 -0.39952,10.49815 -0.35235,0.608 -0.64064,1.16167 -0.64064,1.23038 0,0.0687 0.62508,0.2719 1.38906,0.45153 1.76917,0.41596 4.16748,1.29736 4.16625,1.53113 -5.2e-4,0.0987 -1.16138,0.18174 -2.57969,0.18457 -2.61555,0.005 -4.03395,0.2235 -4.03395,0.62081 0,0.2048 4.42437,1.377 6.71576,1.77929 1.50297,0.26386 0.77899,0.52937 -2.8908,1.06015 -1.73993,0.25165 -3.26443,0.54497 -3.38778,0.65181 -0.27803,0.24083 2.76669,0.92665 5.25136,1.18286 l 1.85208,0.19099 -1.05833,0.37472 c -0.58209,0.20609 -1.9513,0.53354 -3.04271,0.72766 l -1.98438,0.35295 1.3066,0.59613 c 2.44655,1.11623 5.99546,0.40362 9.29477,-1.86637 1.49689,-1.02989 2.08319,-2.25488 1.84368,-3.85209 -0.23292,-1.55321 -1.01839,-2.43623 -2.94355,-3.30914 -2.01715,-0.91462 -2.81045,-1.83355 -2.70134,-3.12913 0.0913,-1.08384 0.64959,-1.44587 2.98539,-1.93581 1.13934,-0.23898 1.84223,-0.22934 3.24288,0.0445 2.82245,0.55174 4.27423,0.64011 4.70074,0.28613 0.49446,-0.41036 0.44872,-0.49033 -2.59622,-4.53919 -3.41551,-4.5416 -3.72387,-5.38842 -3.74179,-10.27574 -0.0124,-3.3829 -0.0833,-3.98638 -0.5995,-5.10451 -1.02437,-2.21884 -4.59731,-5.33828 -8.20317,-7.16199 -0.75915,-0.38395 -1.46005,-0.69809 -1.55756,-0.69809 -0.0975,0 0.36028,0.57472 1.01732,1.27714 1.59642,1.70671 2.38503,3.00287 3.17199,5.21352 0.65637,1.8438 1.07939,3.56351 0.87657,3.56351 -0.0592,0 -0.66139,-0.93085 -1.33815,-2.06856 -2.60635,-4.38158 -6.1684,-7.747 -10.31491,-9.74549 -4.65656,-2.24433 -9.9309,-2.96833 -15.23296,-2.091 -1.51728,0.25106 -2.85299,0.54655 -2.96822,0.65664 -0.19444,0.18575 3.2405,1.34487 3.97983,1.343 1.26708,-0.003 -1.33928,1.22445 -3.97193,1.87088 -0.70256,0.17251 -2.28273,0.25961 -3.57188,0.19689 -2.68587,-0.13067 -4.13157,-0.69369 -7.26597,-2.8297 -2.24447,-1.52955 -3.76532,-2.14933 -5.27417,-2.14933 -3.00783,0 -5.01631,2.59351 -4.62067,5.96657 0.36038,3.07242 1.85595,6.03288 4.11536,8.14629 1.04365,0.97621 1.58226,1.2621 2.88453,1.53108 l 1.60127,0.33074 -1.30791,1.66427 c -0.71934,0.91535 -1.3079,1.72756 -1.3079,1.8049 0,0.0774 1.10133,-0.4105 2.4474,-1.08411 2.62963,-1.31595 5.85689,-3.33125 8.74219,-5.45917 0.98828,-0.72887 1.83934,-1.28053 1.89125,-1.22591 0.0519,0.0546 -0.85578,1.40899 -2.01709,3.00972 -6.77082,9.33285 -8.01026,12.03726 -8.00315,17.4625 0.006,4.25366 1.24169,7.74462 3.89616,11.00325 3.64074,4.4694 8.85716,6.57578 16.32657,6.59266 5.82054,0.0131 8.1422,0.75312 11.44893,3.64908 3.96496,3.47242 9.14199,4.55419 13.22659,2.76379 z m -33.54215,-11.97365 c -0.68274,-0.75442 -0.62311,-2.08144 0.1206,-2.68365 0.8284,-0.6708 1.76777,-0.61108 2.54035,0.16149 0.79339,0.79339 0.82119,1.4421 0.10106,2.3576 -0.68612,0.87226 -2.04811,0.9534 -2.76201,0.16456 z m -4.50685,-4.87935 c -0.79339,-0.79339 -0.8212,-1.4421 -0.10107,-2.3576 0.71685,-0.91133 1.88718,-0.93148 2.77095,-0.0477 0.35719,0.35719 0.64943,0.89838 0.64943,1.20265 0,0.7693 -1.16013,1.85209 -1.98437,1.85209 -0.37703,0 -0.97776,-0.29225 -1.33494,-0.64943 z m 6.7589,-0.93807 c -1.08212,-1.08212 -0.27683,-2.91042 1.28191,-2.91042 0.9588,0 1.6285,0.73684 1.6285,1.79177 0,1.47584 -1.84433,2.18473 -2.91041,1.11865 z m -11.61107,-3.59308 c -0.70059,-0.89065 -0.70963,-1.54872 -0.0306,-2.22776 1.5055,-1.5055 3.973,0.38787 2.71374,2.08232 -0.74479,1.00218 -1.95753,1.06792 -2.68315,0.14544 z m 16.1619,-0.42859 c -1.02764,-1.02764 0.45687,-2.6422 1.53351,-1.66785 0.63832,0.57768 0.67014,1.01391 0.11447,1.56958 -0.49518,0.49517 -1.20854,0.53771 -1.64798,0.0983 z m -9.8425,-0.74083 c -0.29104,-0.29104 -0.52917,-0.82683 -0.52917,-1.19063 0,-0.3638 0.23813,-0.89958 0.52917,-1.19062 0.29104,-0.29104 0.82682,-0.52917 1.19063,-0.52917 0.3638,0 0.89958,0.23813 1.19062,0.52917 0.29104,0.29104 0.52917,0.82682 0.52917,1.19062 0,0.3638 -0.23813,0.89959 -0.52917,1.19063 -0.29104,0.29104 -0.82682,0.52916 -1.19062,0.52916 -0.36381,0 -0.89959,-0.23812 -1.19063,-0.52916 z m 4.96709,-0.99219 c -0.7227,-0.82302 -0.78113,-1.52206 -0.19002,-2.27353 0.66933,-0.85092 2.05023,-0.96209 2.72255,-0.21918 0.5812,0.64222 0.55692,1.97224 -0.046,2.51785 -0.63352,0.57332 -1.97292,0.55978 -2.48655,-0.0251 z m 8.14479,-0.3896 c -0.88903,-1.26927 -0.17772,-2.85155 1.28191,-2.85155 1.0313,0 1.81194,0.74094 1.81194,1.7198 0,1.57913 -2.21338,2.3888 -3.09385,1.13175 z m -17.09541,-3.0749 c -1.23892,-1.00321 -0.42716,-3.23154 1.16857,-3.20782 1.1977,0.0178 2.18038,1.39059 1.76933,2.47172 -0.466,1.22566 -1.89207,1.58297 -2.9379,0.7361 z m 12.73643,-1.20577 c -0.42138,-0.50773 -0.2843,-1.21019 0.30908,-1.58387 0.67871,-0.42742 1.38906,0.11335 1.38906,1.05745 0,0.62577 -0.12444,0.77938 -0.6841,0.84444 -0.37626,0.0437 -0.83258,-0.0994 -1.01404,-0.31802 z m -6.19835,-0.64223 c -0.6552,-0.72399 -0.57075,-2.30349 0.15016,-2.80844 0.81033,-0.56757 1.95394,-0.51572 2.58696,0.11729 0.67563,0.67563 0.69995,2.14468 0.0453,2.73712 -0.6539,0.59177 -2.22884,0.56575 -2.78243,-0.046 z m 9.89544,-1.01293 c -0.84272,-1.07134 -0.26811,-2.47536 1.01001,-2.46791 1.8107,0.0106 2.40418,2.06254 0.83883,2.9003 -0.80091,0.42863 -1.25512,0.32241 -1.84884,-0.43239 z m -14.30938,-3.01478 c -0.44946,-0.83983 -0.20209,-1.66434 0.61672,-2.05559 0.63811,-0.30491 0.83211,-0.29516 1.38906,0.0698 0.70706,0.46328 0.88499,1.656 0.32986,2.21113 -0.53309,0.53309 -2.00579,0.39102 -2.33564,-0.22531 z m 4.39183,-4.10629 c -0.49346,-0.49346 -0.5435,-1.46734 -0.0983,-1.91256 0.56069,-0.5607 1.74815,-0.37675 2.22037,0.34396 0.40149,0.61274 0.40149,0.71017 0,1.32291 -0.49832,0.76054 -1.49218,0.8756 -2.12209,0.24569 z m 1.22464,-5.45798 c -0.89807,-0.89807 0.15806,-2.39426 1.27,-1.79917 0.93389,0.49981 0.52968,2.11667 -0.52916,2.11667 -0.23284,0 -0.56621,-0.14287 -0.74084,-0.3175 z m -12.20493,-0.6751 c -1.40874,-0.71833 -2.52033,-2.27781 -2.52033,-3.53581 0,-1.29418 0.41727,-1.61601 1.90451,-1.46888 2.70574,0.26767 4.94459,3.82305 3.18397,5.05625 -0.76186,0.53362 -1.44755,0.51985 -2.56815,-0.0516 z m 15.39186,-3.01714 c -0.44709,-0.44709 -0.41649,-1.67405 0.0515,-2.0624 0.54509,-0.45238 1.74751,-0.23734 2.1588,0.38607 0.28204,0.42752 0.28674,0.66071 0.024,1.19063 -0.36934,0.74486 -1.68833,1.0316 -2.23422,0.4857 z m 8.81201,-3.22893 c -0.37112,-0.37113 -0.67477,-0.91831 -0.67477,-1.21597 0,-0.72153 0.9117,-1.59953 1.66092,-1.59953 2.11215,0 2.45502,2.82368 0.40292,3.31816 -0.5539,0.13346 -0.86581,0.0206 -1.38907,-0.50266 z m -5.91352,-1.28091 c -0.74215,-0.74216 -0.18302,-2.06375 0.87313,-2.06375 0.7092,0 1.19062,0.48142 1.19062,1.19062 0,0.70921 -0.48142,1.19063 -1.19062,1.19063 -0.3056,0 -0.6985,-0.14288 -0.87313,-0.3175 z m 33.61329,40.33573 c 0.53089,-0.54571 1.20728,-1.52797 1.50309,-2.18282 0.59292,-1.31256 0.72768,-3.73012 0.27439,-4.92236 l -0.27507,-0.72348 -1.203,1.16927 c -0.66164,0.64311 -1.61797,1.98694 -2.12516,2.9863 l -0.92216,1.81702 0.61429,1.41961 c 0.33786,0.78079 0.73896,1.42164 0.89132,1.42413 0.15237,0.002 0.7114,-0.44197 1.2423,-0.98767 z m -13.161,40.76594 c -2.06641,-0.73496 -7.22239,-1.93419 -12.89746,-2.99983 -6.93628,-1.30245 -10.29535,-2.21858 -14.11219,-3.84885 -6.13884,-2.62206 -11.67916,-6.39043 -15.98514,-10.87266 -2.34229,-2.43817 -4.97746,-5.77466 -3.81958,-4.83613 0.28176,0.22839 1.22666,1.01709 2.09979,1.75267 6.89645,5.81005 15.03573,9.74935 26.19375,12.67739 8.50303,2.23133 13.42882,4.14479 17.62904,6.84813 2.21188,1.42362 2.21002,1.42221 2.06037,1.55665 -0.0606,0.0545 -0.58649,-0.0703 -1.16858,-0.27737 z m 5.15938,-2.87358 c -2.85102,-1.33016 -8.02899,-3.12467 -16.40417,-5.68511 -9.1562,-2.79922 -14.85428,-7.26256 -16.54374,-12.95882 -0.16466,-0.55516 0.0327,-0.44654 1.22847,0.67596 3.13787,2.94575 6.33617,4.66176 14.25694,7.64938 6.97055,2.62922 11.04365,4.60265 14.97086,7.25345 2.661,1.79613 6.11684,4.53864 5.66664,4.49697 -0.0728,-0.007 -1.50151,-0.65106 -3.175,-1.43183 z m -39.18796,-13.21987 c -2.14498,-1.16578 -1.23401,-4.36572 1.24285,-4.36572 0.92694,0 1.23956,0.14091 1.80596,0.81405 0.9278,1.10263 0.89755,2.18908 -0.0884,3.17505 -0.86086,0.86086 -1.84016,0.98545 -2.96039,0.37662 z m -7.2816,-5.36379 c -2.03616,-1.64936 -1.04931,-4.55818 1.54642,-4.55818 1.42371,0 2.5898,1.13176 2.5898,2.51354 0,2.008 -2.59676,3.29165 -4.13622,2.04464 z m 10.98577,-2.8383 c -2.22742,-1.21058 -1.2288,-4.6303 1.35214,-4.6303 2.29275,0 3.28222,2.71011 1.56976,4.29948 -0.87142,0.80878 -1.84058,0.91851 -2.9219,0.33082 z m -18.3354,-3.59227 c -0.9278,-1.10263 -0.89755,-2.18908 0.0884,-3.17505 0.52784,-0.52784 1.03834,-0.7734 1.60785,-0.7734 1.20293,0 2.38125,1.23967 2.38125,2.50522 0,2.1683 -2.67171,3.11395 -4.07752,1.44323 z m 10.54779,-0.62913 c -0.83843,-0.83842 -0.82743,-1.84246 0.0296,-2.69945 0.54769,-0.54769 0.84189,-0.64754 1.52135,-0.51634 1.74016,0.33601 2.37235,2.29341 1.07126,3.31685 -0.92479,0.72744 -1.82851,0.69261 -2.62218,-0.10106 z m -4.75966,-4.36729 c -2.00356,-0.80294 -1.48882,-3.80272 0.65253,-3.80272 1.14496,0 1.87019,0.75241 1.87019,1.94028 0,1.4169 -1.27876,2.36097 -2.52272,1.86244 z m -5.56818,-7.98611 c -1.51749,-0.73633 -1.87281,-3.00333 -0.6607,-4.21544 1.22738,-1.22737 3.1847,-0.96493 4.07767,0.54675 1.35254,2.28967 -1.01666,4.83341 -3.41697,3.66869 z"
       id="path36" /></g></svg>
